<svg xmlns="http://www.w3.org/2000/svg" version="1.1" xmlns:xlink="http://www.w3.org/1999/xlink" xmlns:svgjs="http://svgjs.dev/svgjs" width="2000" height="1500" viewBox="0 0 2000 1500"><rect width="2000" height="1500" fill="#5d87ff"></rect><g transform="matrix(0.75,0,0,0.75,249.090909090909,605.185908418059)"><svg viewBox="0 0 396 77" data-background-color="#5d87ff" preserveAspectRatio="xMidYMid meet" height="388" width="2000" xmlns="http://www.w3.org/2000/svg" xmlns:xlink="http://www.w3.org/1999/xlink"><g id="tight-bounds" transform="matrix(1,0,0,1,0.2400000000000091,-0.18149466732143082)"><svg viewBox="0 0 395.52 77.36298933464289" height="77.36298933464289" width="395.52"><g><svg viewBox="0 0 518.7017744156117 101.45711934156378" height="77.36298933464289" width="395.52"><g><rect width="4.452434240979754" height="50.9822024691358" x="407.1755870182716" y="25.23745843621399" fill="#ffffff" opacity="1" stroke-width="0" stroke="transparent" fill-opacity="1" class="rect-qz-0" data-fill-palette-color="primary" rx="1%" id="qz-0" data-palette-color="#ffffff"></rect></g><g transform="matrix(1,0,0,1,0,25.364279835390942)"><svg viewBox="0 0 395.52 50.7285596707819" height="50.7285596707819" width="395.52"><g id="textblocktransform"><svg viewBox="0 0 395.52 50.7285596707819" height="50.7285596707819" width="395.52" id="textblock"><g><svg viewBox="0 0 395.52 50.7285596707819" height="50.7285596707819" width="395.52"><g transform="matrix(1,0,0,1,0,0)"><svg width="395.52" viewBox="2.5 -36.7 292.18 38.400000000000006" height="50.7285596707819" data-palette-color="#ffffff"><g class="wordmark-text-0" data-fill-palette-color="primary" id="text-0"><path d="M26.9-35L36.8-35 36.8 0 26.9 0 26.9-13.65 13.4-13.65 13.4 0 3.5 0 3.5-35 13.4-35 13.4-21.85 26.9-21.85 26.9-35ZM53.6-7.65L71.9-7.65 71.9 0 43.8 0 43.8-35 71.25-35 71.25-27.35 53.6-27.35 53.6-21.45 69.15-21.45 69.15-14.05 53.6-14.05 53.6-7.65ZM77.4 0L77.4-35 87.3-35 87.3-7.85 104-7.85 104 0 77.4 0ZM134.09 0L131.34-6.8 116.54-6.8 113.79 0 103.69 0 119.14-35 128.89-35 144.39 0 134.09 0ZM119.44-14.1L128.44-14.1 123.94-25.3 119.44-14.1ZM159.49 0.7Q155.24 0.7 151.24-0.35 147.24-1.4 144.74-3.15L144.74-3.15 147.99-10.45Q150.34-8.9 153.44-7.95 156.54-7 159.54-7L159.54-7Q165.24-7 165.24-9.85L165.24-9.85Q165.24-11.35 163.62-12.08 161.99-12.8 158.39-13.6L158.39-13.6Q154.44-14.45 151.79-15.43 149.14-16.4 147.24-18.55 145.34-20.7 145.34-24.35L145.34-24.35Q145.34-27.55 147.09-30.13 148.84-32.7 152.32-34.2 155.79-35.7 160.84-35.7L160.84-35.7Q164.29-35.7 167.64-34.93 170.99-34.15 173.54-32.65L173.54-32.65 170.49-25.3Q165.49-28 160.79-28L160.79-28Q157.84-28 156.49-27.13 155.14-26.25 155.14-24.85L155.14-24.85Q155.14-23.45 156.74-22.75 158.34-22.05 161.89-21.3L161.89-21.3Q165.89-20.45 168.52-19.48 171.14-18.5 173.07-16.38 174.99-14.25 174.99-10.6L174.99-10.6Q174.99-7.45 173.24-4.9 171.49-2.35 167.99-0.83 164.49 0.7 159.49 0.7L159.49 0.7ZM202.94-35L212.84-35 212.84 0 202.94 0 202.94-13.65 189.44-13.65 189.44 0 179.54 0 179.54-35 189.44-35 189.44-21.85 202.94-21.85 202.94-35ZM237.49 0.7Q231.94 0.7 227.51-1.65 223.09-4 220.56-8.15 218.04-12.3 218.04-17.5L218.04-17.5Q218.04-22.7 220.56-26.85 223.09-31 227.51-33.35 231.94-35.7 237.49-35.7L237.49-35.7Q243.04-35.7 247.46-33.35 251.89-31 254.41-26.85 256.94-22.7 256.94-17.5L256.94-17.5Q256.94-12.3 254.41-8.15 251.89-4 247.46-1.65 243.04 0.7 237.49 0.7L237.49 0.7ZM237.49-7.5Q240.14-7.5 242.29-8.75 244.44-10 245.69-12.28 246.94-14.55 246.94-17.5L246.94-17.5Q246.94-20.45 245.69-22.73 244.44-25 242.29-26.25 240.14-27.5 237.49-27.5L237.49-27.5Q234.84-27.5 232.69-26.25 230.54-25 229.29-22.73 228.04-20.45 228.04-17.5L228.04-17.5Q228.04-14.55 229.29-12.28 230.54-10 232.69-8.75 234.84-7.5 237.49-7.5L237.49-7.5ZM278.13-35Q282.88-35 286.38-33.43 289.88-31.85 291.78-28.93 293.68-26 293.68-22.05L293.68-22.05Q293.68-18.1 291.78-15.2 289.88-12.3 286.38-10.73 282.88-9.15 278.13-9.15L278.13-9.15 272.03-9.15 272.03 0 262.13 0 262.13-35 278.13-35ZM277.53-16.95Q280.58-16.95 282.13-18.28 283.68-19.6 283.68-22.05L283.68-22.05Q283.68-24.5 282.13-25.85 280.58-27.2 277.53-27.2L277.53-27.2 272.03-27.2 272.03-16.95 277.53-16.95Z" fill="#ffffff" data-fill-palette-color="primary"></path></g></svg></g></svg></g></svg></g></svg></g><g transform="matrix(1,0,0,1,423.28360827752294,0)"><svg viewBox="0 0 95.41816613808871 101.45711934156378" height="101.45711934156378" width="95.41816613808871"><g><svg xmlns="http://www.w3.org/2000/svg" xmlns:xlink="http://www.w3.org/1999/xlink" version="1.1" x="0" y="0" viewBox="7.679000000000003 5 84.643 90" enable-background="new 0 0 100 100" xml:space="preserve" height="101.45711934156378" width="95.41816613808871" class="icon-icon-0" data-fill-palette-color="accent" id="icon-0"><g fill="#ffffff" data-fill-palette-color="accent"><circle cx="60.488" cy="90.333" r="4.7" fill="#ffffff" data-fill-palette-color="accent"></circle><circle cx="79.361" cy="90.333" r="4.7" fill="#ffffff" data-fill-palette-color="accent"></circle><path d="M92.309 61.193c-0.004-0.109-0.016-0.217-0.031-0.324-0.016-0.092-0.029-0.182-0.053-0.271-0.023-0.097-0.055-0.188-0.088-0.281-0.031-0.092-0.066-0.182-0.107-0.271-0.039-0.086-0.086-0.168-0.135-0.252-0.049-0.082-0.1-0.161-0.156-0.239-0.057-0.08-0.121-0.151-0.186-0.228-0.063-0.069-0.125-0.137-0.193-0.201-0.072-0.065-0.148-0.127-0.227-0.188-0.078-0.059-0.156-0.115-0.24-0.168-0.078-0.047-0.16-0.09-0.244-0.133-0.096-0.047-0.195-0.092-0.297-0.129-0.039-0.014-0.074-0.037-0.115-0.049-0.047-0.016-0.096-0.019-0.145-0.031-0.102-0.027-0.205-0.051-0.313-0.066-0.104-0.016-0.201-0.025-0.301-0.029-0.055-0.004-0.105-0.017-0.156-0.017H56.045l-1.113-6.534c-0.004-0.017-0.01-0.029-0.014-0.045-0.021-0.121-0.061-0.234-0.096-0.35-0.023-0.076-0.041-0.152-0.07-0.225-0.045-0.113-0.105-0.217-0.164-0.322-0.035-0.064-0.064-0.133-0.105-0.194-0.072-0.109-0.158-0.21-0.244-0.31-0.039-0.045-0.072-0.094-0.113-0.137-0.104-0.107-0.219-0.2-0.338-0.291-0.033-0.025-0.061-0.056-0.096-0.078-0.121-0.085-0.252-0.154-0.385-0.221-0.041-0.021-0.078-0.047-0.117-0.064-0.115-0.051-0.236-0.085-0.357-0.121-0.068-0.021-0.137-0.049-0.207-0.063-0.096-0.021-0.193-0.027-0.295-0.039-0.104-0.014-0.203-0.029-0.307-0.031-0.018 0-0.033-0.005-0.049-0.005h-6.807L32.627 34.615l-0.283-3.835c0-3.946-3.424-7.146-7.646-7.146h-0.383c-4.224 0-7.646 3.198-7.646 7.146l-0.283 3.848L15.47 47.04l-3.096 24.862h4.637v0.262l-2.69 18.809c-0.189 2.027 1.299 3.822 3.326 4.012C17.761 94.996 17.878 95 17.992 95c1.881 0 3.486-1.432 3.664-3.34l2.604-17.893h0.488l2.604 17.893c0.18 1.908 1.785 3.34 3.664 3.34 0.114 0 0.229-0.004 0.348-0.016 2.025-0.189 3.514-1.984 3.326-4.012L32 72.162v-0.26h4.638l-3.097-24.878 6.369 7.452c0.73 0.854 1.764 1.291 2.803 1.291 0.658 0 1.314-0.182 1.901-0.536 0.176 0.032 0.356 0.056 0.542 0.056h4.287l4.576 26.836c0.002 0.019 0.01 0.031 0.012 0.049 0.016 0.082 0.043 0.16 0.063 0.242 0.029 0.104 0.059 0.207 0.098 0.306 0.027 0.073 0.063 0.146 0.1 0.215 0.049 0.099 0.098 0.192 0.154 0.285 0.041 0.063 0.086 0.125 0.131 0.187 0.066 0.088 0.135 0.172 0.209 0.252 0.051 0.055 0.104 0.106 0.16 0.159 0.078 0.072 0.162 0.14 0.248 0.203 0.061 0.047 0.123 0.093 0.188 0.134 0.094 0.059 0.189 0.106 0.285 0.153 0.068 0.032 0.133 0.067 0.203 0.099 0.115 0.045 0.236 0.077 0.355 0.108 0.061 0.017 0.115 0.037 0.176 0.049 0.186 0.035 0.375 0.058 0.57 0.058 0.002 0 0.004 0 0.006 0h25.834c0.004 0 0.008 0.002 0.012 0.002 0.188 0 0.369-0.023 0.551-0.058 0.055-0.012 0.107-0.026 0.162-0.039 0.121-0.03 0.238-0.065 0.355-0.11 0.061-0.023 0.119-0.047 0.178-0.072 0.113-0.053 0.221-0.113 0.326-0.178 0.045-0.027 0.092-0.053 0.135-0.082 0.146-0.103 0.283-0.213 0.41-0.338 0.01-0.01 0.016-0.021 0.023-0.027 0.115-0.117 0.219-0.244 0.314-0.381 0.033-0.047 0.061-0.098 0.09-0.146 0.063-0.102 0.121-0.205 0.172-0.316 0.029-0.063 0.057-0.129 0.082-0.196 0.018-0.048 0.043-0.093 0.059-0.144l6.5-20.301c0.016-0.051 0.018-0.1 0.031-0.148 0.025-0.1 0.049-0.2 0.064-0.305s0.023-0.209 0.031-0.313c0.002-0.052 0.016-0.099 0.016-0.147C92.322 61.275 92.311 61.236 92.309 61.193z" fill="#ffffff" data-fill-palette-color="accent"></path><path d="M17.367 10.707c-0.231 0.752-0.357 1.551-0.357 2.379 0 4.465 3.621 8.085 8.087 8.085 4.465 0 8.086-3.62 8.086-8.085C33.183 8.62 29.562 5 25.097 5c-2.632 0-4.962 1.262-6.438 3.208-1.237-0.897-3.81-2.163-6.084 0.622 0 0-1.892 2.402-4.896 0.268 0 0 0.719 4.33 4.932 3.441C12.609 12.539 15.252 12.01 17.367 10.707z" fill="#ffffff" data-fill-palette-color="accent"></path></g></svg></g></svg></g></svg></g><defs></defs></svg><rect width="395.52" height="77.36298933464289" fill="none" stroke="none" visibility="hidden"></rect></g></svg></g></svg>