<svg xmlns="http://www.w3.org/2000/svg" version="1.1" xmlns:xlink="http://www.w3.org/1999/xlink" xmlns:svgjs="http://svgjs.dev/svgjs" width="128" height="128" viewBox="0 0 128 128"><g transform="matrix(0.8046875,0,0,0.8046875,12.384273033888888,9.958606291118414)"><svg viewBox="0 0 90 95" data-background-color="#ffffff" preserveAspectRatio="xMidYMid meet" height="135" width="128" xmlns="http://www.w3.org/2000/svg" xmlns:xlink="http://www.w3.org/1999/xlink"><g id="tight-bounds" transform="matrix(1,0,0,1,0.10112064999999859,-0.24049999999999727)"><svg viewBox="0 0 89.7977587 95.481" height="95.481" width="89.7977587"><g><svg viewBox="0 0 89.7977587 95.481" height="95.481" width="89.7977587"><g><svg viewBox="0 0 89.7977587 95.481" height="95.481" width="89.7977587"><g id="textblocktransform"><svg viewBox="0 0 89.7977587 95.481" height="95.481" width="89.7977587" id="textblock"><g><svg viewBox="0 0 89.7977587 95.481" height="95.481" width="89.7977587"><g><svg viewBox="0 0 89.7977587 95.481" height="95.481" width="89.7977587"><g><svg xmlns="http://www.w3.org/2000/svg" xmlns:xlink="http://www.w3.org/1999/xlink" version="1.1" x="0" y="0" viewBox="7.679000000000003 5 84.643 90" enable-background="new 0 0 100 100" xml:space="preserve" height="95.481" width="89.7977587" class="icon-icon-0" data-fill-palette-color="accent" id="icon-0"></svg></g></svg></g></svg></g></svg></g></svg></g></svg></g><defs></defs><mask id="e91b0b9a-a4aa-48ad-89ae-70d0661c5955"><g id="SvgjsG2337"><svg viewBox="0 0 89.7977587 95.481" height="95.481" width="89.7977587"><g><svg viewBox="0 0 89.7977587 95.481" height="95.481" width="89.7977587"><g><svg viewBox="0 0 89.7977587 95.481" height="95.481" width="89.7977587"><g id="SvgjsG2336"><svg viewBox="0 0 89.7977587 95.481" height="95.481" width="89.7977587" id="SvgjsSvg2335"><g><svg viewBox="0 0 89.7977587 95.481" height="95.481" width="89.7977587"><g><svg viewBox="0 0 89.7977587 95.481" height="95.481" width="89.7977587"><g><svg xmlns="http://www.w3.org/2000/svg" xmlns:xlink="http://www.w3.org/1999/xlink" version="1.1" x="0" y="0" viewBox="7.679000000000003 5 84.643 90" enable-background="new 0 0 100 100" xml:space="preserve" height="95.481" width="89.7977587" class="icon-icon-0" data-fill-palette-color="accent" id="SvgjsSvg2334"><g fill="white"><circle cx="60.488" cy="90.333" r="4.7" fill="white"></circle><circle cx="79.361" cy="90.333" r="4.7" fill="white"></circle><path d="M92.309 61.193c-0.004-0.109-0.016-0.217-0.031-0.324-0.016-0.092-0.029-0.182-0.053-0.271-0.023-0.097-0.055-0.188-0.088-0.281-0.031-0.092-0.066-0.182-0.107-0.271-0.039-0.086-0.086-0.168-0.135-0.252-0.049-0.082-0.1-0.161-0.156-0.239-0.057-0.08-0.121-0.151-0.186-0.228-0.063-0.069-0.125-0.137-0.193-0.201-0.072-0.065-0.148-0.127-0.227-0.188-0.078-0.059-0.156-0.115-0.24-0.168-0.078-0.047-0.16-0.09-0.244-0.133-0.096-0.047-0.195-0.092-0.297-0.129-0.039-0.014-0.074-0.037-0.115-0.049-0.047-0.016-0.096-0.019-0.145-0.031-0.102-0.027-0.205-0.051-0.313-0.066-0.104-0.016-0.201-0.025-0.301-0.029-0.055-0.004-0.105-0.017-0.156-0.017H56.045l-1.113-6.534c-0.004-0.017-0.01-0.029-0.014-0.045-0.021-0.121-0.061-0.234-0.096-0.35-0.023-0.076-0.041-0.152-0.07-0.225-0.045-0.113-0.105-0.217-0.164-0.322-0.035-0.064-0.064-0.133-0.105-0.194-0.072-0.109-0.158-0.21-0.244-0.31-0.039-0.045-0.072-0.094-0.113-0.137-0.104-0.107-0.219-0.2-0.338-0.291-0.033-0.025-0.061-0.056-0.096-0.078-0.121-0.085-0.252-0.154-0.385-0.221-0.041-0.021-0.078-0.047-0.117-0.064-0.115-0.051-0.236-0.085-0.357-0.121-0.068-0.021-0.137-0.049-0.207-0.063-0.096-0.021-0.193-0.027-0.295-0.039-0.104-0.014-0.203-0.029-0.307-0.031-0.018 0-0.033-0.005-0.049-0.005h-6.807L32.627 34.615l-0.283-3.835c0-3.946-3.424-7.146-7.646-7.146h-0.383c-4.224 0-7.646 3.198-7.646 7.146l-0.283 3.848L15.47 47.04l-3.096 24.862h4.637v0.262l-2.69 18.809c-0.189 2.027 1.299 3.822 3.326 4.012C17.761 94.996 17.878 95 17.992 95c1.881 0 3.486-1.432 3.664-3.34l2.604-17.893h0.488l2.604 17.893c0.18 1.908 1.785 3.34 3.664 3.34 0.114 0 0.229-0.004 0.348-0.016 2.025-0.189 3.514-1.984 3.326-4.012L32 72.162v-0.26h4.638l-3.097-24.878 6.369 7.452c0.73 0.854 1.764 1.291 2.803 1.291 0.658 0 1.314-0.182 1.901-0.536 0.176 0.032 0.356 0.056 0.542 0.056h4.287l4.576 26.836c0.002 0.019 0.01 0.031 0.012 0.049 0.016 0.082 0.043 0.16 0.063 0.242 0.029 0.104 0.059 0.207 0.098 0.306 0.027 0.073 0.063 0.146 0.1 0.215 0.049 0.099 0.098 0.192 0.154 0.285 0.041 0.063 0.086 0.125 0.131 0.187 0.066 0.088 0.135 0.172 0.209 0.252 0.051 0.055 0.104 0.106 0.16 0.159 0.078 0.072 0.162 0.14 0.248 0.203 0.061 0.047 0.123 0.093 0.188 0.134 0.094 0.059 0.189 0.106 0.285 0.153 0.068 0.032 0.133 0.067 0.203 0.099 0.115 0.045 0.236 0.077 0.355 0.108 0.061 0.017 0.115 0.037 0.176 0.049 0.186 0.035 0.375 0.058 0.57 0.058 0.002 0 0.004 0 0.006 0h25.834c0.004 0 0.008 0.002 0.012 0.002 0.188 0 0.369-0.023 0.551-0.058 0.055-0.012 0.107-0.026 0.162-0.039 0.121-0.03 0.238-0.065 0.355-0.11 0.061-0.023 0.119-0.047 0.178-0.072 0.113-0.053 0.221-0.113 0.326-0.178 0.045-0.027 0.092-0.053 0.135-0.082 0.146-0.103 0.283-0.213 0.41-0.338 0.01-0.01 0.016-0.021 0.023-0.027 0.115-0.117 0.219-0.244 0.314-0.381 0.033-0.047 0.061-0.098 0.09-0.146 0.063-0.102 0.121-0.205 0.172-0.316 0.029-0.063 0.057-0.129 0.082-0.196 0.018-0.048 0.043-0.093 0.059-0.144l6.5-20.301c0.016-0.051 0.018-0.1 0.031-0.148 0.025-0.1 0.049-0.2 0.064-0.305s0.023-0.209 0.031-0.313c0.002-0.052 0.016-0.099 0.016-0.147C92.322 61.275 92.311 61.236 92.309 61.193z" fill="white"></path><path d="M17.367 10.707c-0.231 0.752-0.357 1.551-0.357 2.379 0 4.465 3.621 8.085 8.087 8.085 4.465 0 8.086-3.62 8.086-8.085C33.183 8.62 29.562 5 25.097 5c-2.632 0-4.962 1.262-6.438 3.208-1.237-0.897-3.81-2.163-6.084 0.622 0 0-1.892 2.402-4.896 0.268 0 0 0.719 4.33 4.932 3.441C12.609 12.539 15.252 12.01 17.367 10.707z" fill="white"></path></g></svg></g></svg></g></svg></g></svg></g></svg></g></svg></g><defs><mask></mask></defs></svg><rect width="89.7977587" height="95.481" fill="black" stroke="none" visibility="hidden"></rect></g></mask><linearGradient x1="0" x2="1" y1="0.578" y2="0.595" id="776cc6c4-4c0e-4e29-bb00-2584edf2f74f"><stop stop-color="#6ee2f5" offset="0"></stop><stop stop-color="#6454f0" offset="1"></stop></linearGradient><rect width="89.7977587" height="95.481" fill="url(#776cc6c4-4c0e-4e29-bb00-2584edf2f74f)" mask="url(#e91b0b9a-a4aa-48ad-89ae-70d0661c5955)" data-fill-palette-color="accent"></rect></svg><rect width="89.7977587" height="95.481" fill="none" stroke="none" visibility="hidden"></rect></g></svg></g></svg>