<?xml version="1.0" encoding="UTF-8"?>
<svg version="1.1" viewBox="0 0 2000 388" xmlns="http://www.w3.org/2000/svg">
<g transform="translate(-1.2121 .91454)">
<svg width="2e3" height="388" data-background-color="#ffffff" viewBox="0 0 396 77" xmlns="http://www.w3.org/2000/svg" xmlns:xlink="http://www.w3.org/1999/xlink">
<g transform="translate(.24 -.18149)">
<svg width="395.52" height="77.363" viewBox="0 0 395.52 77.36298933464289">
<svg width="395.52" height="77.363" viewBox="0 0 518.7017744156117 101.45711934156378">
<g transform="translate(0 25.364)">
<svg width="395.52" height="50.729" viewBox="0 0 395.52 50.7285596707819">
<svg width="395.52" height="50.729" viewBox="0 0 395.52 50.7285596707819">
<svg width="395.52" height="50.729" viewBox="0 0 395.52 50.7285596707819">
<g>
<svg width="395.52" height="50.729" data-palette-color="url(#22c0ff21-3be5-4063-a832-a32fc6f59889)" viewBox="2.5 -36.7 292.18 38.400000000000006"/>
</g>
</svg>
</svg>
</svg>
</g>
<g transform="translate(423.28)">
<svg width="95.418" height="101.46" viewBox="0 0 95.41816613808871 101.45711934156378">
<svg class="icon-icon-0" width="95.418" height="101.46" enable-background="new 0 0 100 100" data-fill-palette-color="accent" version="1.1" viewBox="7.679000000000003 5 84.643 90" xml:space="preserve" xmlns="http://www.w3.org/2000/svg" xmlns:xlink="http://www.w3.org/1999/xlink"/>
</svg>
</g>
</svg>
<mask id="c">
<svg width="395.52" height="77.363" viewBox="0 0 395.52 77.36298933464289">
<svg width="395.52" height="77.363" viewBox="0 0 518.7017744156117 101.45711934156378">
<rect class="rect-qz-0" x="407.18" y="25.237" width="4.4524" height="50.982" rx="1%" fill="#fff" stroke="transparent" stroke-width="0" data-palette-color="url(#22c0ff21-3be5-4063-a832-a32fc6f59889)"/>
<g transform="translate(0 25.364)">
<svg width="395.52" height="50.729" viewBox="0 0 395.52 50.7285596707819">
<svg width="395.52" height="50.729" viewBox="0 0 395.52 50.7285596707819">
<svg width="395.52" height="50.729" viewBox="0 0 395.52 50.7285596707819">
<g>
<svg width="395.52" height="50.729" data-palette-color="url(#22c0ff21-3be5-4063-a832-a32fc6f59889)" viewBox="2.5 -36.7 292.18 38.400000000000006">
<g class="wordmark-text-0" data-fill-palette-color="primary">
<path d="m26.9-35h9.9v35h-9.9v-13.65h-13.5v13.65h-9.9v-35h9.9v13.15h13.5v-13.15zm26.7 27.35h18.3v7.65h-28.1v-35h27.45v7.65h-17.65v5.9h15.55v7.4h-15.55v6.4zm23.8 7.65v-35h9.9v27.15h16.7v7.85h-26.6zm56.69 0-2.75-6.8h-14.8l-2.75 6.8h-10.1l15.45-35h9.75l15.5 35h-10.3zm-14.65-14.1h9l-4.5-11.2-4.5 11.2zm40.05 14.8q-4.25 0-8.25-1.05t-6.5-2.8l3.25-7.3q2.35 1.55 5.45 2.5t6.1 0.95q5.7 0 5.7-2.85 0-1.5-1.62-2.23-1.63-0.72-5.23-1.52-3.95-0.85-6.6-1.83-2.65-0.97-4.55-3.12t-1.9-5.8q0-3.2 1.75-5.78 1.75-2.57 5.23-4.07 3.47-1.5 8.52-1.5 3.45 0 6.8 0.77 3.35 0.78 5.9 2.28l-3.05 7.35q-5-2.7-9.7-2.7-2.95 0-4.3 0.87-1.35 0.88-1.35 2.28t1.6 2.1 5.15 1.45q4 0.85 6.63 1.82 2.62 0.98 4.55 3.1 1.92 2.13 1.92 5.78 0 3.15-1.75 5.7t-5.25 4.07q-3.5 1.53-8.5 1.53zm43.45-35.7h9.9v35h-9.9v-13.65h-13.5v13.65h-9.9v-35h9.9v13.15h13.5v-13.15zm34.55 35.7q-5.55 0-9.98-2.35-4.42-2.35-6.95-6.5-2.52-4.15-2.52-9.35t2.52-9.35q2.53-4.15 6.95-6.5 4.43-2.35 9.98-2.35t9.97 2.35q4.43 2.35 6.95 6.5 2.53 4.15 2.53 9.35t-2.53 9.35q-2.52 4.15-6.95 6.5-4.42 2.35-9.97 2.35zm0-8.2q2.65 0 4.8-1.25t3.4-3.53q1.25-2.27 1.25-5.22t-1.25-5.23q-1.25-2.27-3.4-3.52t-4.8-1.25-4.8 1.25-3.4 3.52q-1.25 2.28-1.25 5.23t1.25 5.22q1.25 2.28 3.4 3.53t4.8 1.25zm40.64-27.5q4.75 0 8.25 1.57 3.5 1.58 5.4 4.5 1.9 2.93 1.9 6.88t-1.9 6.85-5.4 4.47q-3.5 1.58-8.25 1.58h-6.1v9.15h-9.9v-35h16zm-0.6 18.05q3.05 0 4.6-1.33 1.55-1.32 1.55-3.77t-1.55-3.8-4.6-1.35h-5.5v10.25h5.5z" fill="#fff"/>
</g>
</svg>
</g>
</svg>
</svg>
</svg>
</g>
<g transform="translate(423.28)">
<svg width="95.418" height="101.46" viewBox="0 0 95.41816613808871 101.45711934156378">
<svg class="icon-icon-0" width="95.418" height="101.46" enable-background="new 0 0 100 100" data-fill-palette-color="accent" version="1.1" viewBox="7.679000000000003 5 84.643 90" xml:space="preserve" xmlns="http://www.w3.org/2000/svg" xmlns:xlink="http://www.w3.org/1999/xlink"><circle cx="60.488" cy="90.333" r="4.7"/><circle cx="79.361" cy="90.333" r="4.7"/><path d="m92.309 61.193c-4e-3 -0.109-0.016-0.217-0.031-0.324-0.016-0.092-0.029-0.182-0.053-0.271-0.023-0.097-0.055-0.188-0.088-0.281-0.031-0.092-0.066-0.182-0.107-0.271-0.039-0.086-0.086-0.168-0.135-0.252-0.049-0.082-0.1-0.161-0.156-0.239-0.057-0.08-0.121-0.151-0.186-0.228-0.063-0.069-0.125-0.137-0.193-0.201-0.072-0.065-0.148-0.127-0.227-0.188-0.078-0.059-0.156-0.115-0.24-0.168-0.078-0.047-0.16-0.09-0.244-0.133-0.096-0.047-0.195-0.092-0.297-0.129-0.039-0.014-0.074-0.037-0.115-0.049-0.047-0.016-0.096-0.019-0.145-0.031-0.102-0.027-0.205-0.051-0.313-0.066-0.104-0.016-0.201-0.025-0.301-0.029-0.055-4e-3 -0.105-0.017-0.156-0.017h-33.277l-1.113-6.534c-4e-3 -0.017-0.01-0.029-0.014-0.045-0.021-0.121-0.061-0.234-0.096-0.35-0.023-0.076-0.041-0.152-0.07-0.225-0.045-0.113-0.105-0.217-0.164-0.322-0.035-0.064-0.064-0.133-0.105-0.194-0.072-0.109-0.158-0.21-0.244-0.31-0.039-0.045-0.072-0.094-0.113-0.137-0.104-0.107-0.219-0.2-0.338-0.291-0.033-0.025-0.061-0.056-0.096-0.078-0.121-0.085-0.252-0.154-0.385-0.221-0.041-0.021-0.078-0.047-0.117-0.064-0.115-0.051-0.236-0.085-0.357-0.121-0.068-0.021-0.137-0.049-0.207-0.063-0.096-0.021-0.193-0.027-0.295-0.039-0.104-0.014-0.203-0.029-0.307-0.031-0.018 0-0.033-5e-3 -0.049-5e-3h-6.807l-12.541-14.671-0.283-3.835c0-3.946-3.424-7.146-7.646-7.146h-0.383c-4.224 0-7.646 3.198-7.646 7.146l-0.283 3.848-0.916 12.412-3.096 24.862h4.637v0.262l-2.69 18.809c-0.189 2.027 1.299 3.822 3.326 4.012 0.114 0.011 0.231 0.015 0.345 0.015 1.881 0 3.486-1.432 3.664-3.34l2.604-17.893h0.488l2.604 17.893c0.18 1.908 1.785 3.34 3.664 3.34 0.114 0 0.229-4e-3 0.348-0.016 2.025-0.189 3.514-1.984 3.326-4.012l-2.69-18.81v-0.26h4.638l-3.097-24.878 6.369 7.452c0.73 0.854 1.764 1.291 2.803 1.291 0.658 0 1.314-0.182 1.901-0.536 0.176 0.032 0.356 0.056 0.542 0.056h4.287l4.576 26.836c2e-3 0.019 0.01 0.031 0.012 0.049 0.016 0.082 0.043 0.16 0.063 0.242 0.029 0.104 0.059 0.207 0.098 0.306 0.027 0.073 0.063 0.146 0.1 0.215 0.049 0.099 0.098 0.192 0.154 0.285 0.041 0.063 0.086 0.125 0.131 0.187 0.066 0.088 0.135 0.172 0.209 0.252 0.051 0.055 0.104 0.106 0.16 0.159 0.078 0.072 0.162 0.14 0.248 0.203 0.061 0.047 0.123 0.093 0.188 0.134 0.094 0.059 0.189 0.106 0.285 0.153 0.068 0.032 0.133 0.067 0.203 0.099 0.115 0.045 0.236 0.077 0.355 0.108 0.061 0.017 0.115 0.037 0.176 0.049 0.186 0.035 0.375 0.058 0.57 0.058h6e-3 25.834c4e-3 0 8e-3 2e-3 0.012 2e-3 0.188 0 0.369-0.023 0.551-0.058 0.055-0.012 0.107-0.026 0.162-0.039 0.121-0.03 0.238-0.065 0.355-0.11 0.061-0.023 0.119-0.047 0.178-0.072 0.113-0.053 0.221-0.113 0.326-0.178 0.045-0.027 0.092-0.053 0.135-0.082 0.146-0.103 0.283-0.213 0.41-0.338 0.01-0.01 0.016-0.021 0.023-0.027 0.115-0.117 0.219-0.244 0.314-0.381 0.033-0.047 0.061-0.098 0.09-0.146 0.063-0.102 0.121-0.205 0.172-0.316 0.029-0.063 0.057-0.129 0.082-0.196 0.018-0.048 0.043-0.093 0.059-0.144l6.5-20.301c0.016-0.051 0.018-0.1 0.031-0.148 0.025-0.1 0.049-0.2 0.064-0.305s0.023-0.209 0.031-0.313c2e-3 -0.052 0.016-0.099 0.016-0.147s-0.011-0.087-0.013-0.13z"/><path d="m17.367 10.707c-0.231 0.752-0.357 1.551-0.357 2.379 0 4.465 3.621 8.085 8.087 8.085 4.465 0 8.086-3.62 8.086-8.085 0-4.466-3.621-8.086-8.086-8.086-2.632 0-4.962 1.262-6.438 3.208-1.237-0.897-3.81-2.163-6.084 0.622 0 0-1.892 2.402-4.896 0.268 0 0 0.719 4.33 4.932 3.441-2e-3 0 2.641-0.529 4.756-1.832z"/></svg>
</svg>
</g>
</svg>
</svg>
<rect width="395.52" height="77.363" visibility="hidden"/>
</mask>
<linearGradient id="a" y1=".578" y2=".595">
<stop stop-color="#6ee2f5" offset="0"/>
<stop stop-color="#6454f0" offset="1"/>
</linearGradient>
<rect width="395.52" height="77.363" fill="url(#a)" mask="url(#c)" data-fill-palette-color="primary"/>
<mask id="b">
<svg width="395.52" height="77.363" viewBox="0 0 395.52 77.36298933464289">
<svg width="395.52" height="77.363" viewBox="0 0 518.7017744156117 101.45711934156378">
<g transform="translate(0 25.364)">
<svg width="395.52" height="50.729" viewBox="0 0 395.52 50.7285596707819">
<svg width="395.52" height="50.729" viewBox="0 0 395.52 50.7285596707819">
<svg width="395.52" height="50.729" viewBox="0 0 395.52 50.7285596707819">
<g>
<svg width="395.52" height="50.729" data-palette-color="url(#22c0ff21-3be5-4063-a832-a32fc6f59889)" viewBox="2.5 -36.7 292.18 38.400000000000006"/>
</g>
</svg>
</svg>
</svg>
</g>
<g transform="translate(423.28)">
<svg width="95.418" height="101.46" viewBox="0 0 95.41816613808871 101.45711934156378">
<svg class="icon-icon-0" width="95.418" height="101.46" enable-background="new 0 0 100 100" data-fill-palette-color="accent" version="1.1" viewBox="7.679000000000003 5 84.643 90" xml:space="preserve" xmlns="http://www.w3.org/2000/svg" xmlns:xlink="http://www.w3.org/1999/xlink"><circle cx="60.488" cy="90.333" r="4.7" fill="#fff"/><circle cx="79.361" cy="90.333" r="4.7" fill="#fff"/><path d="m92.309 61.193c-4e-3 -0.109-0.016-0.217-0.031-0.324-0.016-0.092-0.029-0.182-0.053-0.271-0.023-0.097-0.055-0.188-0.088-0.281-0.031-0.092-0.066-0.182-0.107-0.271-0.039-0.086-0.086-0.168-0.135-0.252-0.049-0.082-0.1-0.161-0.156-0.239-0.057-0.08-0.121-0.151-0.186-0.228-0.063-0.069-0.125-0.137-0.193-0.201-0.072-0.065-0.148-0.127-0.227-0.188-0.078-0.059-0.156-0.115-0.24-0.168-0.078-0.047-0.16-0.09-0.244-0.133-0.096-0.047-0.195-0.092-0.297-0.129-0.039-0.014-0.074-0.037-0.115-0.049-0.047-0.016-0.096-0.019-0.145-0.031-0.102-0.027-0.205-0.051-0.313-0.066-0.104-0.016-0.201-0.025-0.301-0.029-0.055-4e-3 -0.105-0.017-0.156-0.017h-33.277l-1.113-6.534c-4e-3 -0.017-0.01-0.029-0.014-0.045-0.021-0.121-0.061-0.234-0.096-0.35-0.023-0.076-0.041-0.152-0.07-0.225-0.045-0.113-0.105-0.217-0.164-0.322-0.035-0.064-0.064-0.133-0.105-0.194-0.072-0.109-0.158-0.21-0.244-0.31-0.039-0.045-0.072-0.094-0.113-0.137-0.104-0.107-0.219-0.2-0.338-0.291-0.033-0.025-0.061-0.056-0.096-0.078-0.121-0.085-0.252-0.154-0.385-0.221-0.041-0.021-0.078-0.047-0.117-0.064-0.115-0.051-0.236-0.085-0.357-0.121-0.068-0.021-0.137-0.049-0.207-0.063-0.096-0.021-0.193-0.027-0.295-0.039-0.104-0.014-0.203-0.029-0.307-0.031-0.018 0-0.033-5e-3 -0.049-5e-3h-6.807l-12.541-14.671-0.283-3.835c0-3.946-3.424-7.146-7.646-7.146h-0.383c-4.224 0-7.646 3.198-7.646 7.146l-0.283 3.848-0.916 12.412-3.096 24.862h4.637v0.262l-2.69 18.809c-0.189 2.027 1.299 3.822 3.326 4.012 0.114 0.011 0.231 0.015 0.345 0.015 1.881 0 3.486-1.432 3.664-3.34l2.604-17.893h0.488l2.604 17.893c0.18 1.908 1.785 3.34 3.664 3.34 0.114 0 0.229-4e-3 0.348-0.016 2.025-0.189 3.514-1.984 3.326-4.012l-2.69-18.81v-0.26h4.638l-3.097-24.878 6.369 7.452c0.73 0.854 1.764 1.291 2.803 1.291 0.658 0 1.314-0.182 1.901-0.536 0.176 0.032 0.356 0.056 0.542 0.056h4.287l4.576 26.836c2e-3 0.019 0.01 0.031 0.012 0.049 0.016 0.082 0.043 0.16 0.063 0.242 0.029 0.104 0.059 0.207 0.098 0.306 0.027 0.073 0.063 0.146 0.1 0.215 0.049 0.099 0.098 0.192 0.154 0.285 0.041 0.063 0.086 0.125 0.131 0.187 0.066 0.088 0.135 0.172 0.209 0.252 0.051 0.055 0.104 0.106 0.16 0.159 0.078 0.072 0.162 0.14 0.248 0.203 0.061 0.047 0.123 0.093 0.188 0.134 0.094 0.059 0.189 0.106 0.285 0.153 0.068 0.032 0.133 0.067 0.203 0.099 0.115 0.045 0.236 0.077 0.355 0.108 0.061 0.017 0.115 0.037 0.176 0.049 0.186 0.035 0.375 0.058 0.57 0.058h6e-3 25.834c4e-3 0 8e-3 2e-3 0.012 2e-3 0.188 0 0.369-0.023 0.551-0.058 0.055-0.012 0.107-0.026 0.162-0.039 0.121-0.03 0.238-0.065 0.355-0.11 0.061-0.023 0.119-0.047 0.178-0.072 0.113-0.053 0.221-0.113 0.326-0.178 0.045-0.027 0.092-0.053 0.135-0.082 0.146-0.103 0.283-0.213 0.41-0.338 0.01-0.01 0.016-0.021 0.023-0.027 0.115-0.117 0.219-0.244 0.314-0.381 0.033-0.047 0.061-0.098 0.09-0.146 0.063-0.102 0.121-0.205 0.172-0.316 0.029-0.063 0.057-0.129 0.082-0.196 0.018-0.048 0.043-0.093 0.059-0.144l6.5-20.301c0.016-0.051 0.018-0.1 0.031-0.148 0.025-0.1 0.049-0.2 0.064-0.305s0.023-0.209 0.031-0.313c2e-3 -0.052 0.016-0.099 0.016-0.147s-0.011-0.087-0.013-0.13z" fill="#fff"/><path d="m17.367 10.707c-0.231 0.752-0.357 1.551-0.357 2.379 0 4.465 3.621 8.085 8.087 8.085 4.465 0 8.086-3.62 8.086-8.085 0-4.466-3.621-8.086-8.086-8.086-2.632 0-4.962 1.262-6.438 3.208-1.237-0.897-3.81-2.163-6.084 0.622 0 0-1.892 2.402-4.896 0.268 0 0 0.719 4.33 4.932 3.441-2e-3 0 2.641-0.529 4.756-1.832z" fill="#fff"/></svg>
</svg>
</g>
</svg>
<mask>
<svg width="395.52" height="77.363" viewBox="0 0 395.52 77.36298933464289">
<svg width="395.52" height="77.363" viewBox="0 0 518.7017744156117 101.45711934156378">
<rect class="rect-qz-0" x="407.18" y="25.237" width="4.4524" height="50.982" rx="1%" stroke="transparent" stroke-width="0" data-palette-color="url(#22c0ff21-3be5-4063-a832-a32fc6f59889)"/>
<g transform="translate(0 25.364)">
<svg width="395.52" height="50.729" viewBox="0 0 395.52 50.7285596707819">
<svg width="395.52" height="50.729" viewBox="0 0 395.52 50.7285596707819">
<svg width="395.52" height="50.729" viewBox="0 0 395.52 50.7285596707819">
<g>
<svg width="395.52" height="50.729" data-palette-color="url(#22c0ff21-3be5-4063-a832-a32fc6f59889)" viewBox="2.5 -36.7 292.18 38.400000000000006">
<g class="wordmark-text-0" data-fill-palette-color="primary">
<path d="m26.9-35h9.9v35h-9.9v-13.65h-13.5v13.65h-9.9v-35h9.9v13.15h13.5v-13.15zm26.7 27.35h18.3v7.65h-28.1v-35h27.45v7.65h-17.65v5.9h15.55v7.4h-15.55v6.4zm23.8 7.65v-35h9.9v27.15h16.7v7.85h-26.6zm56.69 0-2.75-6.8h-14.8l-2.75 6.8h-10.1l15.45-35h9.75l15.5 35h-10.3zm-14.65-14.1h9l-4.5-11.2-4.5 11.2zm40.05 14.8q-4.25 0-8.25-1.05t-6.5-2.8l3.25-7.3q2.35 1.55 5.45 2.5t6.1 0.95q5.7 0 5.7-2.85 0-1.5-1.62-2.23-1.63-0.72-5.23-1.52-3.95-0.85-6.6-1.83-2.65-0.97-4.55-3.12t-1.9-5.8q0-3.2 1.75-5.78 1.75-2.57 5.23-4.07 3.47-1.5 8.52-1.5 3.45 0 6.8 0.77 3.35 0.78 5.9 2.28l-3.05 7.35q-5-2.7-9.7-2.7-2.95 0-4.3 0.87-1.35 0.88-1.35 2.28t1.6 2.1 5.15 1.45q4 0.85 6.63 1.82 2.62 0.98 4.55 3.1 1.92 2.13 1.92 5.78 0 3.15-1.75 5.7t-5.25 4.07q-3.5 1.53-8.5 1.53zm43.45-35.7h9.9v35h-9.9v-13.65h-13.5v13.65h-9.9v-35h9.9v13.15h13.5v-13.15zm34.55 35.7q-5.55 0-9.98-2.35-4.42-2.35-6.95-6.5-2.52-4.15-2.52-9.35t2.52-9.35q2.53-4.15 6.95-6.5 4.43-2.35 9.98-2.35t9.97 2.35q4.43 2.35 6.95 6.5 2.53 4.15 2.53 9.35t-2.53 9.35q-2.52 4.15-6.95 6.5-4.42 2.35-9.97 2.35zm0-8.2q2.65 0 4.8-1.25t3.4-3.53q1.25-2.27 1.25-5.22t-1.25-5.23q-1.25-2.27-3.4-3.52t-4.8-1.25-4.8 1.25-3.4 3.52q-1.25 2.28-1.25 5.23t1.25 5.22q1.25 2.28 3.4 3.53t4.8 1.25zm40.64-27.5q4.75 0 8.25 1.57 3.5 1.58 5.4 4.5 1.9 2.93 1.9 6.88t-1.9 6.85-5.4 4.47q-3.5 1.58-8.25 1.58h-6.1v9.15h-9.9v-35h16zm-0.6 18.05q3.05 0 4.6-1.33 1.55-1.32 1.55-3.77t-1.55-3.8-4.6-1.35h-5.5v10.25h5.5z"/>
</g>
</svg>
</g>
</svg>
</svg>
</svg>
</g>
<g transform="translate(423.28)">
<svg width="95.418" height="101.46" viewBox="0 0 95.41816613808871 101.45711934156378">
<svg class="icon-icon-0" width="95.418" height="101.46" enable-background="new 0 0 100 100" data-fill-palette-color="accent" version="1.1" viewBox="7.679000000000003 5 84.643 90" xml:space="preserve" xmlns="http://www.w3.org/2000/svg" xmlns:xlink="http://www.w3.org/1999/xlink"><circle cx="60.488" cy="90.333" r="4.7"/><circle cx="79.361" cy="90.333" r="4.7"/><path d="m92.309 61.193c-4e-3 -0.109-0.016-0.217-0.031-0.324-0.016-0.092-0.029-0.182-0.053-0.271-0.023-0.097-0.055-0.188-0.088-0.281-0.031-0.092-0.066-0.182-0.107-0.271-0.039-0.086-0.086-0.168-0.135-0.252-0.049-0.082-0.1-0.161-0.156-0.239-0.057-0.08-0.121-0.151-0.186-0.228-0.063-0.069-0.125-0.137-0.193-0.201-0.072-0.065-0.148-0.127-0.227-0.188-0.078-0.059-0.156-0.115-0.24-0.168-0.078-0.047-0.16-0.09-0.244-0.133-0.096-0.047-0.195-0.092-0.297-0.129-0.039-0.014-0.074-0.037-0.115-0.049-0.047-0.016-0.096-0.019-0.145-0.031-0.102-0.027-0.205-0.051-0.313-0.066-0.104-0.016-0.201-0.025-0.301-0.029-0.055-4e-3 -0.105-0.017-0.156-0.017h-33.277l-1.113-6.534c-4e-3 -0.017-0.01-0.029-0.014-0.045-0.021-0.121-0.061-0.234-0.096-0.35-0.023-0.076-0.041-0.152-0.07-0.225-0.045-0.113-0.105-0.217-0.164-0.322-0.035-0.064-0.064-0.133-0.105-0.194-0.072-0.109-0.158-0.21-0.244-0.31-0.039-0.045-0.072-0.094-0.113-0.137-0.104-0.107-0.219-0.2-0.338-0.291-0.033-0.025-0.061-0.056-0.096-0.078-0.121-0.085-0.252-0.154-0.385-0.221-0.041-0.021-0.078-0.047-0.117-0.064-0.115-0.051-0.236-0.085-0.357-0.121-0.068-0.021-0.137-0.049-0.207-0.063-0.096-0.021-0.193-0.027-0.295-0.039-0.104-0.014-0.203-0.029-0.307-0.031-0.018 0-0.033-5e-3 -0.049-5e-3h-6.807l-12.541-14.671-0.283-3.835c0-3.946-3.424-7.146-7.646-7.146h-0.383c-4.224 0-7.646 3.198-7.646 7.146l-0.283 3.848-0.916 12.412-3.096 24.862h4.637v0.262l-2.69 18.809c-0.189 2.027 1.299 3.822 3.326 4.012 0.114 0.011 0.231 0.015 0.345 0.015 1.881 0 3.486-1.432 3.664-3.34l2.604-17.893h0.488l2.604 17.893c0.18 1.908 1.785 3.34 3.664 3.34 0.114 0 0.229-4e-3 0.348-0.016 2.025-0.189 3.514-1.984 3.326-4.012l-2.69-18.81v-0.26h4.638l-3.097-24.878 6.369 7.452c0.73 0.854 1.764 1.291 2.803 1.291 0.658 0 1.314-0.182 1.901-0.536 0.176 0.032 0.356 0.056 0.542 0.056h4.287l4.576 26.836c2e-3 0.019 0.01 0.031 0.012 0.049 0.016 0.082 0.043 0.16 0.063 0.242 0.029 0.104 0.059 0.207 0.098 0.306 0.027 0.073 0.063 0.146 0.1 0.215 0.049 0.099 0.098 0.192 0.154 0.285 0.041 0.063 0.086 0.125 0.131 0.187 0.066 0.088 0.135 0.172 0.209 0.252 0.051 0.055 0.104 0.106 0.16 0.159 0.078 0.072 0.162 0.14 0.248 0.203 0.061 0.047 0.123 0.093 0.188 0.134 0.094 0.059 0.189 0.106 0.285 0.153 0.068 0.032 0.133 0.067 0.203 0.099 0.115 0.045 0.236 0.077 0.355 0.108 0.061 0.017 0.115 0.037 0.176 0.049 0.186 0.035 0.375 0.058 0.57 0.058h6e-3 25.834c4e-3 0 8e-3 2e-3 0.012 2e-3 0.188 0 0.369-0.023 0.551-0.058 0.055-0.012 0.107-0.026 0.162-0.039 0.121-0.03 0.238-0.065 0.355-0.11 0.061-0.023 0.119-0.047 0.178-0.072 0.113-0.053 0.221-0.113 0.326-0.178 0.045-0.027 0.092-0.053 0.135-0.082 0.146-0.103 0.283-0.213 0.41-0.338 0.01-0.01 0.016-0.021 0.023-0.027 0.115-0.117 0.219-0.244 0.314-0.381 0.033-0.047 0.061-0.098 0.09-0.146 0.063-0.102 0.121-0.205 0.172-0.316 0.029-0.063 0.057-0.129 0.082-0.196 0.018-0.048 0.043-0.093 0.059-0.144l6.5-20.301c0.016-0.051 0.018-0.1 0.031-0.148 0.025-0.1 0.049-0.2 0.064-0.305s0.023-0.209 0.031-0.313c2e-3 -0.052 0.016-0.099 0.016-0.147s-0.011-0.087-0.013-0.13z"/><path d="m17.367 10.707c-0.231 0.752-0.357 1.551-0.357 2.379 0 4.465 3.621 8.085 8.087 8.085 4.465 0 8.086-3.62 8.086-8.085 0-4.466-3.621-8.086-8.086-8.086-2.632 0-4.962 1.262-6.438 3.208-1.237-0.897-3.81-2.163-6.084 0.622 0 0-1.892 2.402-4.896 0.268 0 0 0.719 4.33 4.932 3.441-2e-3 0 2.641-0.529 4.756-1.832z"/></svg>
</svg>
</g>
</svg>
</svg>
<rect width="395.52" height="77.363" visibility="hidden"/>
</mask>
</svg>
<rect width="395.52" height="77.363" visibility="hidden"/>
</mask>
<rect width="395.52" height="77.363" fill="url(#a)" mask="url(#b)" data-fill-palette-color="accent"/>
</svg>
<rect width="395.52" height="77.363" fill="none" visibility="hidden"/>
</g>
</svg>
</g>
</svg>
